<svg id="Capa_1" enable-background="new 0 0 512 512" height="512" viewBox="0 0 512 512" width="512" xmlns="http://www.w3.org/2000/svg"><g><g><path d="m511.997 205.76c0-.048.003-.097.003-.145 0-25.079-27.369-46.642-79.147-62.354-16.936-5.139-35.85-9.448-56.2-12.87v-18.932h55.807c3.636 0 6.985-1.974 8.747-5.153 1.762-3.181 1.659-7.066-.269-10.148l-14.646-23.421 14.646-23.419c1.928-3.083 2.03-6.969.269-10.149-1.762-3.18-5.111-5.153-8.747-5.153h-65.807c-5.522 0-10 4.478-10 10v83.359c-31.341-4.199-65.458-6.408-100.652-6.408-7.693 0-15.331.11-22.903.319v-29.827h55.807c3.636 0 6.985-1.974 8.747-5.153 1.762-3.181 1.659-7.066-.269-10.148l-14.646-23.421 14.646-23.419c1.928-3.083 2.03-6.969.269-10.149-1.762-3.18-5.111-5.153-8.747-5.153h-65.807c-5.523 0-10 4.478-10 10v98.064c-45.795 2.403-88.359 8.648-123.556 18.205v-28.825h55.807c3.636 0 6.985-1.974 8.747-5.153 1.762-3.181 1.659-7.066-.269-10.148l-14.647-23.423 14.646-23.419c1.928-3.083 2.031-6.969.269-10.149s-5.111-5.153-8.747-5.153h-65.807c-5.523 0-10 4.478-10 10v102.325c-45.549 15.399-69.541 35.796-69.541 59.275 0 .055.003.113.003.169v138.483c0 .023-.003.045-.003.068v68.99c0 14.765 10.018 36.291 57.745 54.993 33.454 13.11 80.499 22.698 132.471 27.002.002 0 .004 0 .006.001 21.27 1.768 43.4 2.664 65.778 2.664s44.509-.896 65.778-2.664c.002 0 .004 0 .006-.001 51.972-4.304 99.017-13.893 132.471-27.002 47.726-18.702 57.745-40.228 57.745-54.993v-68.99c0-.02-.003-.038-.003-.058zm-135.345-151.745h37.759l-8.393 13.419c-2.028 3.244-2.028 7.361 0 10.604l8.393 13.421h-37.759zm-143.555-20h37.759l-8.393 13.419c-2.028 3.244-2.028 7.361 0 10.604l8.393 13.421h-37.759zm137.845 343.103c-5.522 0-10 4.478-10 10v14.641c-9.577 1.4-19.612 2.629-30.093 3.658-.938-18.56-8.609-35.883-21.852-49.136-11.776-11.766-26.776-19.119-42.998-21.27v-44.804c33.155-.408 65.371-2.836 94.942-7.01v13.509c0 5.522 4.478 10 10 10s10-4.478 10-10v-16.67c21.194-3.724 40.668-8.395 57.702-13.898v117.558c-15.994 5.603-35.338 10.672-57.702 14.778v-11.355c.001-5.523-4.476-10.001-9.999-10.001zm-189.793 28.299c-10.48-1.029-20.515-2.258-30.092-3.658v-118.562c29.571 4.175 61.788 6.603 94.943 7.01v44.815c-35.362 4.738-63.003 34.208-64.851 70.395zm-161.146-61.082v-104.249c7.437 5.927 17.445 11.913 30.836 17.68.008.003.015.008.023.011.815.351 1.66.693 2.493 1.039v116.808c-21.665-10.147-33.325-21.252-33.353-31.253 0-.012.001-.024.001-.036zm235.997-74.059c-74.034 0-143.753-10.24-189.126-27.584 5.064-8.053 19.958-18.473 49.994-27.558 37.056-11.209 86.468-17.382 139.132-17.382s102.076 6.173 139.132 17.382c30.036 9.085 44.93 19.505 49.994 27.558-45.373 17.344-115.092 27.584-189.126 27.584zm-182.645-4.139c17.034 5.504 36.508 10.174 57.702 13.898v118.438c-22.364-4.106-41.708-9.175-57.702-14.778zm385.29-7.32c.833-.346 1.678-.689 2.493-1.04.01-.004.02-.01.03-.014 13.388-5.767 23.394-11.752 30.83-17.678v104.25c0 .011.001.021.002.031-.024 10.002-11.685 21.11-33.354 31.258v-116.807zm-369.104-204.802h37.758l-8.392 13.419c-2.029 3.244-2.029 7.361 0 10.604l8.393 13.421h-37.759zm-4.586 108.384c45.548-13.821 106.292-21.434 171.045-21.434 64.752 0 125.497 7.612 171.045 21.434 47.853 14.521 64.926 31.825 64.954 43.188 0 .011-.002.021-.002.032v.069c-.053 9.222-10.271 19.483-28.437 28.855-8.021-15.305-29.276-28.46-62.638-38.552-38.882-11.762-90.35-18.238-144.922-18.238-54.573 0-106.041 6.477-144.923 18.238-33.362 10.091-54.617 23.246-62.638 38.552-18.157-9.368-28.373-19.624-28.435-28.843v-.081c0-.012-.002-.025-.002-.037.032-11.364 17.108-28.663 64.953-43.183zm-64.955 250.926v-34.507c8.673 6.904 20.844 13.879 37.746 20.502 31.476 12.332 74.985 21.551 123.304 26.182v48.908c-101.061-9.936-161.05-38.371-161.05-61.085zm181.05 62.768v-66.808c0-30.3 24.65-54.95 54.95-54.95 14.673 0 28.475 5.716 38.855 16.089 10.379 10.387 16.095 24.188 16.095 38.861v66.808c-17.885 1.257-36.324 1.893-54.95 1.893s-37.066-.636-54.95-1.893zm290.95-62.768c0 22.714-59.989 51.148-161.05 61.085v-48.908c48.319-4.631 91.828-13.85 123.304-26.182 16.902-6.623 29.072-13.598 37.746-20.502z"/><path d="m380.18 338.27c-1.611-3.865-5.581-6.387-9.77-6.16-4.165.226-7.814 3.1-9.03 7.084-1.213 3.977.248 8.467 3.606 10.934 3.281 2.41 7.766 2.6 11.231.458 4.121-2.549 5.794-7.846 3.963-12.316z"/></g></g></svg>